HIERARCHY
ROOT Hips
{
	OFFSET 0.000000 0.000000 0.000000
	CHANNELS 6 Xposition Yposition Zposition Zrotation Yrotation Xrotation 
	JOINT LHipJoint
	{
		OFFSET 0.000000 0.000000 0.000000
		CHANNELS 3 Zrotation Yrotation Xrotation
		JOINT LeftUpLeg
		{
			OFFSET 1.363060 -1.794630 0.839290
			CHANNELS 3 Zrotation Yrotation Xrotation
			JOINT LeftLeg
			{
				OFFSET 2.448110 -6.726130 0.000000
				CHANNELS 3 Zrotation Yrotation Xrotation
				JOINT LeftFoot
				{
					OFFSET 2.562200 -7.039590 0.000000
					CHANNELS 3 Zrotation Yrotation Xrotation
					JOINT LeftToeBase
					{
						OFFSET 0.157640 -0.433110 2.322550
						CHANNELS 3 Zrotation Yrotation Xrotation
						End Site
						{
							OFFSET 0.000000 0.000000 0.000000
						}
					}
				}
			}
		}
	}
	JOINT RHipJoint
	{
		OFFSET 0.000000 0.000000 0.000000
		CHANNELS 3 Zrotation Yrotation Xrotation
		JOINT RightUpLeg
		{
			OFFSET -1.305520 -1.794630 0.839290
			CHANNELS 3 Zrotation Yrotation Xrotation
			JOINT RightLeg
			{
				OFFSET -2.542530 -6.985550 0.000000
				CHANNELS 3 Zrotation Yrotation Xrotation
				JOINT RightFoot
				{
					OFFSET -2.568260 -7.056230 0.000000
					CHANNELS 3 Zrotation Yrotation Xrotation
					JOINT RightToeBase
					{
						OFFSET -0.164730 -0.452590 2.363150
						CHANNELS 3 Zrotation Yrotation Xrotation
						End Site
						{
							OFFSET 0.000000 0.000000 0.000000
						}
					}
				}
			}
		}
	}
	JOINT LowerBack
	{
		OFFSET 0.000000 0.000000 0.000000
		CHANNELS 3 Zrotation Yrotation Xrotation
		JOINT Spine
		{
			OFFSET 0.028270 2.035590 -0.193380
			CHANNELS 3 Zrotation Yrotation Xrotation
			JOINT Spine1
			{
				OFFSET 0.056720 2.048850 -0.042750
				CHANNELS 3 Zrotation Yrotation Xrotation
				JOINT Neck
				{
					OFFSET 0.000000 0.000000 0.000000
					CHANNELS 3 Zrotation Yrotation Xrotation
					JOINT Neck1
					{
						OFFSET -0.054170 1.746240 0.172020
						CHANNELS 3 Zrotation Yrotation Xrotation
						JOINT Head
						{
							OFFSET 0.104070 1.761360 -0.123970
							CHANNELS 3 Zrotation Yrotation Xrotation
							End Site
							{
								OFFSET 0.000000 0.000000 0.000000
							}
						}
					}
				}
				JOINT LeftShoulder
				{
					OFFSET 0.000000 0.000000 0.000000
					CHANNELS 3 Zrotation Yrotation Xrotation
					JOINT LeftArm
					{
						OFFSET 3.362410 1.200890 -0.311210
						CHANNELS 3 Zrotation Yrotation Xrotation
						JOINT LeftForeArm
						{
							OFFSET 4.983000 -0.000000 -0.000000
							CHANNELS 3 Zrotation Yrotation Xrotation
							JOINT LeftHand
							{
								OFFSET 3.483560 -0.000000 -0.000000
								CHANNELS 3 Zrotation Yrotation Xrotation
								JOINT LeftFingerBase
								{
									OFFSET 0.000000 0.000000 0.000000
									CHANNELS 3 Zrotation Yrotation Xrotation
									JOINT LeftHandIndex1
									{
										OFFSET 0.715260 -0.000000 -0.000000
										CHANNELS 3 Zrotation Yrotation Xrotation
										End Site
										{
											OFFSET 0.000000 0.000000 0.000000
										}
									}
								}
								JOINT LThumb
								{
									OFFSET 0.000000 0.000000 0.000000
									CHANNELS 3 Zrotation Yrotation Xrotation
									End Site
									{
										OFFSET 0.000000 0.000000 0.000000
									}
								}
							}
						}
					}
				}
				JOINT RightShoulder
				{
					OFFSET 0.000000 0.000000 0.000000
					CHANNELS 3 Zrotation Yrotation Xrotation
					JOINT RightArm
					{
						OFFSET -3.136600 1.374050 -0.404650
						CHANNELS 3 Zrotation Yrotation Xrotation
						JOINT RightForeArm
						{
							OFFSET -5.241900 -0.000000 -0.000000
							CHANNELS 3 Zrotation Yrotation Xrotation
							JOINT RightHand
							{
								OFFSET -3.444170 -0.000000 -0.000000
								CHANNELS 3 Zrotation Yrotation Xrotation
								JOINT RightFingerBase
								{
									OFFSET 0.000000 0.000000 0.000000
									CHANNELS 3 Zrotation Yrotation Xrotation
									JOINT RightHandIndex1
									{
										OFFSET -0.622530 -0.000000 -0.000000
										CHANNELS 3 Zrotation Yrotation Xrotation
										End Site
										{
											OFFSET 0.000000 0.000000 0.000000
										}
									}
								}
								JOINT RThumb
								{
									OFFSET 0.000000 0.000000 0.000000
									CHANNELS 3 Zrotation Yrotation Xrotation
									End Site
									{
										OFFSET 0.000000 0.000000 0.000000
									}
								}
							}
						}
					}
				}
			}
		}
	}
}
MOTION
Frames: 9
Frame Time: 0.008333
-30.985592 17.475943 0.895028 33.774332 87.915563 27.093101 2.264677 -2.103191 -0.294469 -17.415197 3.874715 14.160352 -1.715871 1.103390 3.215624 -0.406179 7.004865 -10.618100 0.285700 -3.437400 -9.498900 -5.805925 4.697087 -7.276615 19.190390 -11.676742 17.599879 -0.584095 -3.692874 5.138547 -0.471451 0.291802 -15.408839 -0.516000 -4.604200 12.783100 -1.102285 1.591193 10.616072 0.495199 2.222355 -2.101603 -1.569058 0.816712 2.141202 -0.646909 0.935544 -18.112457 5.605012 1.372764 10.787644 -0.409700 1.206100 11.795600 6.703266 -0.912036 -0.044249 -92.638498 -1.065954 40.556184 10.662244 -19.601806 -2.051841 -0.170194 0.749501 16.734399 18.854413 -25.896499 -8.860500 -7.125000 0.000000 0.000000 -6.426100 2.255300 6.207900 -6.536170 1.651670 1.775165 90.253619 -3.701249 35.845315 -18.270478 32.849001 -4.775473 0.405236 -2.911042 3.756224 -11.005606 -34.378991 6.128100 7.125000 0.000000 0.000000 23.272800 -60.347900 -8.997700 
-30.984161 17.476250 0.895028 33.882093 87.899608 27.181057 2.269044 -2.102324 -0.296028 -17.457575 3.827910 14.216539 -1.719044 1.096590 3.196528 -0.415759 7.073372 -10.586726 0.282800 -3.420300 -9.451000 -5.800889 4.700745 -7.277570 19.172322 -11.685046 17.624065 -0.583281 -3.688853 5.128679 -0.470338 0.276726 -15.396078 -0.521200 -4.627100 12.847900 -1.093615 1.596049 10.610704 0.482627 2.231177 -2.101201 -1.624671 0.822996 2.158067 -0.626880 0.929132 -18.169098 5.642690 1.367191 10.846312 -0.389100 1.214000 11.846800 6.696349 -0.902807 -0.048015 -92.584370 -1.063990 40.537877 10.643173 -19.571681 -2.045429 -0.138707 0.746452 16.705483 17.576270 -26.269428 -8.332000 -7.125000 0.000000 0.000000 -7.248000 2.085500 7.036500 -6.544459 1.659548 1.774424 90.332690 -3.686586 35.758128 -18.269659 32.867472 -4.783268 0.413570 -2.924184 3.843705 -10.806795 -34.646634 6.073000 7.125000 0.000000 0.000000 23.683400 -60.536900 -9.274400 
-30.981810 17.474308 0.895641 32.288869 87.906208 25.619734 2.226726 -2.127682 -0.304658 -17.374678 3.767137 14.253188 -1.720291 1.076622 3.159977 -0.429941 7.159508 -10.520407 0.260400 -3.282800 -9.067100 -5.859178 4.654270 -7.264306 19.301739 -11.689064 17.538489 -0.585276 -3.704315 5.155239 -0.472724 0.388029 -15.397902 -0.519300 -4.618800 12.824300 -1.053831 1.618285 10.558367 0.493209 2.264425 -2.103853 -1.619300 0.831423 2.178763 -0.635138 0.914945 -18.242253 5.676334 1.359283 10.889290 -0.366900 1.216000 11.892200 6.698517 -0.902821 -0.050858 -92.666885 -1.117119 40.189325 10.548660 -19.435348 -2.015438 -0.130603 0.749375 17.022265 17.439931 -26.420681 -8.307100 -7.125000 0.000000 0.000000 -7.345800 1.951600 7.151000 -6.543611 1.659198 1.771529 90.335665 -3.700680 35.593750 -18.250963 32.851109 -4.782953 0.429650 -2.933503 3.963554 -10.448797 -34.919980 5.936900 7.125000 0.000000 0.000000 24.266100 -60.700100 -9.613300 
-30.980072 17.474819 0.897175 29.551900 87.992870 22.833173 2.150960 -2.162869 -0.312007 -17.115884 3.758088 14.361922 -1.715675 1.043490 3.115678 -0.430381 7.160814 -10.551465 0.237900 -3.138900 -8.665600 -5.955576 4.580053 -7.251928 19.593211 -11.672498 17.569723 -0.579571 -3.708434 5.137740 -0.472049 0.360591 -15.416071 -0.471300 -4.403100 12.213700 -0.884567 1.596835 10.594943 0.506513 2.254898 -2.099021 -1.693740 0.817649 2.188959 -0.688957 0.905578 -18.282448 5.762124 1.370492 10.903772 -0.296200 1.225400 11.911100 6.697881 -0.906282 -0.050658 -92.568602 -1.024092 40.631073 10.678905 -19.618044 -2.056228 -0.138935 0.748449 16.558084 17.538319 -26.395729 -8.349300 -7.125000 0.000000 0.000000 -7.283300 1.961100 7.087900 -6.559863 1.660416 1.768583 90.360183 -3.701054 35.399184 -18.102413 32.686490 -4.707819 0.429970 -2.906738 4.266621 -10.233548 -34.047613 5.690000 7.125000 0.000000 0.000000 23.765700 -59.897000 -8.943600 
-30.977210 17.474614 0.899526 28.389439 88.016699 21.554671 2.119331 -2.169010 -0.314279 -17.118431 3.535057 14.706825 -1.732458 0.959341 2.917330 -0.455208 7.444025 -10.790395 0.235900 -3.125700 -8.629000 -5.989999 4.557962 -7.254531 19.720661 -11.656753 17.745305 -0.570918 -3.685202 5.066137 -0.469533 0.230233 -15.435022 -0.449500 -4.301300 11.925900 -0.855446 1.604541 10.710790 0.520107 2.272285 -2.099201 -1.654142 0.821049 2.133325 -0.775676 0.908982 -18.265258 5.811696 1.409680 10.931986 -0.242100 1.241600 11.927400 6.693939 -0.908944 -0.052632 -92.612202 -0.907938 40.700894 10.728180 -19.687380 -2.072299 -0.161591 0.759373 16.506940 18.595200 -26.507236 -8.916900 -7.125000 0.000000 0.000000 -6.649000 1.663700 6.497500 -6.545739 1.668545 1.772886 90.308348 -3.778100 35.740963 -18.288047 32.888423 -4.796777 0.411298 -2.930767 3.797013 -10.897266 -34.842152 6.151900 7.125000 0.000000 0.000000 23.753300 -60.726300 -9.411300 
-30.973019 17.472570 0.900037 28.891606 87.976720 22.031755 2.135600 -2.159490 -0.315297 -17.331138 3.253304 14.967066 -1.755892 0.892265 2.734347 -0.484073 7.767008 -11.036119 0.215100 -2.985500 -8.238500 -5.964744 4.576399 -7.258206 19.635259 -11.669303 17.821542 -0.571221 -3.666965 5.024846 -0.470351 0.281198 -15.417594 -0.476100 -4.424900 12.275100 -0.919432 1.613149 10.703878 0.523246 2.277628 -2.105372 -1.593984 0.822225 2.121313 -0.809156 0.920732 -18.292090 5.829148 1.445467 10.984077 -0.221200 1.259100 11.968300 6.694266 -0.903871 -0.056020 -92.675579 -0.800262 40.527968 10.759913 -19.739240 -2.083821 -0.133051 0.749855 16.658289 17.418062 -26.538755 -8.328900 -7.125000 0.000000 0.000000 -7.371100 1.833700 7.191800 -6.543644 1.674008 1.770175 90.267287 -3.782549 35.777331 -18.292999 32.884311 -4.798234 0.419219 -2.932517 3.747129 -10.791909 -34.960134 6.117700 7.125000 0.000000 0.000000 23.959400 -60.808000 -9.545300 
-30.970157 17.471343 0.900650 29.141283 87.944235 22.335650 2.144185 -2.158947 -0.315938 -17.375071 3.240832 14.934956 -1.756819 0.890356 2.721728 -0.494077 7.804868 -10.913365 0.198600 -2.869700 -7.916300 -5.955208 4.582319 -7.255776 19.578195 -11.670342 17.778764 -0.575846 -3.661277 5.014060 -0.471192 0.393600 -15.377366 -0.504200 -4.552100 12.635300 -0.948808 1.614509 10.607988 0.518711 2.273513 -2.112070 -1.598087 0.820150 2.155625 -0.779761 0.917581 -18.356050 5.819532 1.438666 11.032870 -0.233100 1.260600 12.014500 6.698205 -0.898594 -0.059213 -92.709226 -0.761370 40.324343 10.778460 -19.770265 -2.090749 -0.149332 0.742605 16.800173 17.963609 -25.950227 -8.432200 -7.125000 0.000000 0.000000 -6.979100 2.352700 6.737500 -6.552791 1.674126 1.764715 90.279781 -3.760621 35.549413 -18.167710 32.746142 -4.742732 0.439368 -2.924314 4.034606 -10.226213 -34.677470 5.785500 7.125000 0.000000 0.000000 24.287200 -60.444300 -9.473400 
-30.971588 17.473797 0.901570 29.559786 87.947688 22.688423 2.159291 -2.152020 -0.314464 -17.390085 3.262487 14.987016 -1.752838 0.891873 2.726109 -0.493271 7.741191 -10.729297 0.182100 -2.748300 -7.578700 -5.935203 4.598044 -7.258730 19.524185 -11.711388 17.855183 -0.572943 -3.653510 4.995816 -0.470381 0.368773 -15.370733 -0.509700 -4.576500 12.704500 -0.959196 1.599259 10.701067 0.515236 2.254421 -2.117557 -1.601735 0.814105 2.093709 -0.803890 0.918494 -18.302448 5.838985 1.444664 11.013415 -0.215700 1.262400 11.992400 6.694908 -0.901807 -0.058583 -92.792647 -0.764118 40.040081 10.712115 -19.671106 -2.069451 -0.126460 0.744822 16.933452 17.191376 -26.357010 -8.163800 -7.125000 0.000000 0.000000 -7.492000 2.059700 7.281100 -6.557666 1.683325 1.766594 90.270814 -3.790037 35.521585 -18.132957 32.705837 -4.732477 0.438161 -2.927409 4.112855 -10.182620 -34.759707 5.776600 7.125000 0.000000 0.000000 24.398600 -60.506900 -9.556600 
-30.971179 17.472468 0.901161 28.246320 88.013538 21.421582 2.117730 -2.165103 -0.310508 -17.261547 3.205764 14.971223 -1.751687 0.873330 2.697425 -0.477938 7.651962 -10.850761 0.151800 -2.510500 -6.918700 -5.987419 4.558138 -7.243808 19.678056 -11.700901 17.770226 -0.572195 -3.663997 5.009682 -0.469186 0.330160 -15.378466 -0.508900 -4.572600 12.693500 -0.878810 1.572103 10.670793 0.528617 2.221220 -2.138795 -1.604744 0.794475 2.036818 -0.848777 0.923093 -18.238241 5.857694 1.463809 11.002925 -0.191000 1.268000 11.971800 6.695427 -0.909627 -0.059160 -92.871087 -0.740191 39.876622 10.648443 -19.574718 -2.048169 -0.152217 0.754703 16.930560 18.324100 -26.346401 -8.730900 -7.125000 0.000000 0.000000 -6.797600 1.878800 6.618300 -6.555258 1.683105 1.765549 90.210130 -3.836340 35.645417 -18.152160 32.722108 -4.745810 0.438475 -2.936842 3.961828 -10.271113 -35.084382 5.871900 7.125000 0.000000 0.000000 24.585700 -60.806300 -9.811400 
